<?xml version="1.0" encoding="UTF-8"?>
<svg id="Lager_1" xmlns="http://www.w3.org/2000/svg" version="1.1" viewBox="0 0 1920 1080">
  <!-- Generator: Adobe Illustrator 29.0.0, SVG Export Plug-In . SVG Version: 2.1.0 Build 186)  -->
  <defs>
    <style>
      .st0 {
        fill: #800020;
      }
    </style>
  </defs>
  <path class="st0" d="M1910,498.9c-4.9-8.2-13.9-5.1-22.4-3.6-18,3.2-43.1,13.8-61.1,20.2-100,35.7-195.8,82.3-295,119.9-5.9,2.2-41.5,15.8-43.7,13.6-.5-2.9.4-5.2,1.6-7.8,15.8-34.9,65.4-83.9,90.1-116.3,5.6-7.3,23.4-28.6,22.2-36.5-1.1-7.1-17.1-23.7-24.7-22.5-5,.8-41.1,24.1-48.5,28.8-44.1,28.2-85.6,60.8-129.6,89.3-21.7,14.1-67.5,46.6-88.8,55-3.3,1.3-6.2,2.1-9.8,1.6-1.6-1.4,7.8-12.6,9.3-14.6,21.6-27,58.6-59.6,86.7-80.1,11.6-8.5,78.4-51.8,88.1-48.9l9.1,9.9c15.9.2,7.8-12.3,1.5-20.4-6.1-7.9-23.5-21.4-33.3-23-47.4-7.7-136.5,53.6-171.9,84.3-9.6,8.3-31.6,33.6-39.4,37.7-17.1,8.8-47,15-66.8,22.9-16.6,6.6-34.3,14.8-50.5,22.4-10.7,5-79.4,44.2-85,39,1.1-5.8,5.5-12.4,8.7-17.3,60.3-92.8,138.8-165.9,217.7-242,11.5-11.1,71.6-66.3,73.4-75.8,2.5-13-28.4-41.4-42-41.9-83,47.7-162.7,101.9-247.4,146.7-36.7,19.4-116.1,58.2-155.6,61.2-18.2,1.4-20.5-17.1-37.2-16.6-13.7.4-57.4,17.7-72.5,23.6-88.2,34-169.8,85.8-248.6,137-2.8-2,.1-6.9,1.4-9.1,7.7-13.8,21.9-32.2,31.4-45.8,18.8-26.8,39.1-52.6,59.8-78,2.6-9.2-21.8-25.5-31.5-23.1-13.2,3.3-51.3,42.9-62.1,54.8-23.3,25.5-93.9,111.3-97.7,142-2.7,21.2,16.2,37.6,32.5,48.5,24.9,16.7,31.7,11.6,54.7-5,57.7-41.5,110.6-96,176.7-127.7,3-1.4,5.3-3.2,9-2.4,2.4,2.3-21.5,36.8-23.9,43.8-9.1,26.8-1.9,46.7,19.9,63.3,25.9,19.8,39.9,8.1,62.4-10.2,33.2-27.1,125.5-118.4,141.4-154.6,2.1-4.7,3-8,2.4-13.2,82.7-11.1,158.3-54.3,230.3-93.9l3.1,3.1c-54.5,52.3-106.8,107.2-148.4,170.5-14.1,21.4-39,56.3-27.1,82.2,6.7,14.6,43.6,46.6,59.8,48.6,32,3.9,73.3-17,101.8-31.7,30.2-15.5,58.5-35.2,88.1-51.8,1.9-.3,3.5,0,5.1,1,1.3.8,13.8,20,17.6,24.1,31.8,33.7,52,27.2,86.4,3,32.5-22.9,61.6-51.7,93-75.9,5.7-4.4,15.3-13.7,21.8-11.5-31.5,35.3-9.3,65,22,88.5,23.4,17.7,40.5,12.4,66.7,4.3,36.1-11.1,81.7-32.2,117-47.7,62.2-27.2,142.4-61.5,199.3-96.7,7.2-4.4,55.2-39.3,52.6-45.4ZM824,582.4c-7.9,10.8-48.6,51.5-59.4,59.4-2.8,2.1-4.4,3.9-8.4,3-4-3.1,60.6-70.6,70.9-70.9.9,4.1-.9,5.6-3,8.4Z"/>
  <path class="st0" d="M748.2,310.3c32.5-20.4,64.8-39.5,94.2-62.5,6.9-6,11.5-12.1,8.8-14l-.6-.4c-33.5-1.1-67,7.2-97.5,19.3-62.9,24.6-144.2,71.4-206.7,109.9-158.3,94.3-286.8,208.2-416.6,336.2-8.5,7.2-18.6,20.7-28.8,24.1-2.3.2-2.3-2.9-.5-7.6,2.5-6.8,7.1-14.8,10.7-21.8,54.5-103.5,120.1-203.4,187.4-301.3,7.6-11.8,14.9-23.6,21.6-35.3,10-16.7,20-35-.5-48.4-7.4-5.6-16.2-4.4-22.4,2.9-58.9,73.1-112.1,149.1-163,227.9-46.8,72.7-95.3,150.8-116.9,219.7-5.4,18.1-12.2,40-3.1,55.9,8.7,14.1,28.7,28.5,45.2,31.6,10.8,1.8,18.8-4,28.1-12.6,14.1-13.2,26-26.5,39-39.3,118.6-119.6,224.6-224.3,356.9-319.3,84-61.5,176-111.1,264.6-164.9Z"/>
  <path class="st0" d="M656,437.1c2,9.1,11.1,12.7,20.4,13.3,30.9,1,56.8-17.1,82.7-38.2,21.6-19.4,47.1-40,41.1-56.1l-.5-.6c-24.4-18.3-152.8,43.9-143.8,81.5Z"/>
</svg>